# xmcd
#
# Track frame offsets: 
#        150
#        1020
#        25245
#        48808
#        74850
#        98340
#        119150
#        156358
#        192986
#        213734
#        229245
#        257701
#        283840
#        301405
#        305015
#        326991
#
# Disc length: 4750 seconds
#
# Revision: 0
# Processed by: cddbd v1.5.2PL0 Copyright (c) Steve Scherf et al.
# Submitted via: ExactAudioCopy v0.99pb5
#
DISCID=ef128c10
DTITLE=Madison Blues Band - Live at W.I.S.E
DYEAR=2005
DGENRE=Blues
TTITLE0=Introduction
TTITLE1=I believe I'm in love with you
TTITLE2=Dust my room
TTITLE3=Quuen Bee
TTITLE4=Wade in the water
TTITLE5=Chain of fools
TTITLE6=Mustang Sally
TTITLE7=Rockin' you Baby
TTITLE8=Pride and joy
TTITLE9=Keep your sins to yourself
TTITLE10=Lie to me
TTITLE11=Little by little
TTITLE12=Half-caf decaf
TTITLE13=Introductions
TTITLE14=Before you accuse me
TTITLE15=Sweet home Chicago
EXTD=
EXTT0=
EXTT1=
EXTT2=
EXTT3=
EXTT4=
EXTT5=
EXTT6=
EXTT7=
EXTT8=
EXTT9=
EXTT10=
EXTT11=
EXTT12=
EXTT13=
EXTT14=
EXTT15=
PLAYORDER=
